<?xml version="1.0" encoding="utf-8"?>
<svg xmlns="http://www.w3.org/2000/svg" xmlns:xlink="http://www.w3.org/1999/xlink" style="margin: auto; background: rgba(0, 0, 0, 0); display: block; shape-rendering: auto;" width="154px" height="154px" viewBox="0 0 100 100" preserveAspectRatio="xMidYMid">
<g transform="rotate(0 50 50)">
  <rect x="49.5" y="11" rx="0" ry="0" width="1" height="18" fill="#ffffff">
    <animate attributeName="opacity" values="1;0" keyTimes="0;1" dur="2.7027027027027026s" begin="-2.494802494802495s" repeatCount="indefinite"></animate>
  </rect>
</g><g transform="rotate(27.692307692307693 50 50)">
  <rect x="49.5" y="11" rx="0" ry="0" width="1" height="18" fill="#ffffff">
    <animate attributeName="opacity" values="1;0" keyTimes="0;1" dur="2.7027027027027026s" begin="-2.2869022869022873s" repeatCount="indefinite"></animate>
  </rect>
</g><g transform="rotate(55.38461538461539 50 50)">
  <rect x="49.5" y="11" rx="0" ry="0" width="1" height="18" fill="#ffffff">
    <animate attributeName="opacity" values="1;0" keyTimes="0;1" dur="2.7027027027027026s" begin="-2.079002079002079s" repeatCount="indefinite"></animate>
  </rect>
</g><g transform="rotate(83.07692307692308 50 50)">
  <rect x="49.5" y="11" rx="0" ry="0" width="1" height="18" fill="#ffffff">
    <animate attributeName="opacity" values="1;0" keyTimes="0;1" dur="2.7027027027027026s" begin="-1.8711018711018712s" repeatCount="indefinite"></animate>
  </rect>
</g><g transform="rotate(110.76923076923077 50 50)">
  <rect x="49.5" y="11" rx="0" ry="0" width="1" height="18" fill="#ffffff">
    <animate attributeName="opacity" values="1;0" keyTimes="0;1" dur="2.7027027027027026s" begin="-1.6632016632016633s" repeatCount="indefinite"></animate>
  </rect>
</g><g transform="rotate(138.46153846153845 50 50)">
  <rect x="49.5" y="11" rx="0" ry="0" width="1" height="18" fill="#ffffff">
    <animate attributeName="opacity" values="1;0" keyTimes="0;1" dur="2.7027027027027026s" begin="-1.4553014553014554s" repeatCount="indefinite"></animate>
  </rect>
</g><g transform="rotate(166.15384615384616 50 50)">
  <rect x="49.5" y="11" rx="0" ry="0" width="1" height="18" fill="#ffffff">
    <animate attributeName="opacity" values="1;0" keyTimes="0;1" dur="2.7027027027027026s" begin="-1.2474012474012475s" repeatCount="indefinite"></animate>
  </rect>
</g><g transform="rotate(193.84615384615384 50 50)">
  <rect x="49.5" y="11" rx="0" ry="0" width="1" height="18" fill="#ffffff">
    <animate attributeName="opacity" values="1;0" keyTimes="0;1" dur="2.7027027027027026s" begin="-1.0395010395010396s" repeatCount="indefinite"></animate>
  </rect>
</g><g transform="rotate(221.53846153846155 50 50)">
  <rect x="49.5" y="11" rx="0" ry="0" width="1" height="18" fill="#ffffff">
    <animate attributeName="opacity" values="1;0" keyTimes="0;1" dur="2.7027027027027026s" begin="-0.8316008316008316s" repeatCount="indefinite"></animate>
  </rect>
</g><g transform="rotate(249.23076923076923 50 50)">
  <rect x="49.5" y="11" rx="0" ry="0" width="1" height="18" fill="#ffffff">
    <animate attributeName="opacity" values="1;0" keyTimes="0;1" dur="2.7027027027027026s" begin="-0.6237006237006237s" repeatCount="indefinite"></animate>
  </rect>
</g><g transform="rotate(276.9230769230769 50 50)">
  <rect x="49.5" y="11" rx="0" ry="0" width="1" height="18" fill="#ffffff">
    <animate attributeName="opacity" values="1;0" keyTimes="0;1" dur="2.7027027027027026s" begin="-0.4158004158004158s" repeatCount="indefinite"></animate>
  </rect>
</g><g transform="rotate(304.61538461538464 50 50)">
  <rect x="49.5" y="11" rx="0" ry="0" width="1" height="18" fill="#ffffff">
    <animate attributeName="opacity" values="1;0" keyTimes="0;1" dur="2.7027027027027026s" begin="-0.2079002079002079s" repeatCount="indefinite"></animate>
  </rect>
</g><g transform="rotate(332.3076923076923 50 50)">
  <rect x="49.5" y="11" rx="0" ry="0" width="1" height="18" fill="#ffffff">
    <animate attributeName="opacity" values="1;0" keyTimes="0;1" dur="2.7027027027027026s" begin="0s" repeatCount="indefinite"></animate>
  </rect>
</g>
<!-- [ldio] generated by https://loading.io/ --></svg>